<svg width="19" height="19" viewBox="0 0 19 19" fill="none" xmlns="http://www.w3.org/2000/svg">
  <g clip-path="url(#clip0_28_475)">
    <path
      d="M15.5301 4.14298C14.3252 3.62795 13.0534 3.26247 11.747 3.05583C11.5696 3.35277 11.4073 3.66342 11.2639 3.97642C10.569 3.87845 9.86727 3.82914 9.16453 3.82891C8.46292 3.82891 7.75787 3.87874 7.06489 3.97515C6.92338 3.66292 6.75899 3.35334 6.5806 3.05566C5.27596 3.26355 4.00086 3.63113 2.79662 4.14512C0.402291 7.45549 -0.246575 10.6831 0.07784 13.8649C1.47987 14.8328 3.04902 15.5688 4.71715 16.0412C5.09123 15.5692 5.42635 15.0668 5.71087 14.5439C5.16805 14.3549 4.64421 14.1213 4.14552 13.8458C4.27675 13.7568 4.40509 13.6652 4.52909 13.5762C5.97914 14.2127 7.56358 14.5447 9.16664 14.5447C10.7697 14.5447 12.3542 14.2127 13.8043 13.5761C13.9298 13.6718 14.0581 13.7635 14.1879 13.8457C13.6882 14.1217 13.1634 14.3559 12.6197 14.5457C12.9052 15.0697 13.2376 15.5702 13.6134 16.0418C15.283 15.5709 16.8534 14.8349 18.2558 13.8659L18.2554 13.8663C18.6361 10.1764 17.6051 6.97841 15.5301 4.14298V4.14298ZM6.12119 11.9082C5.21709 11.9082 4.47011 11.1413 4.47011 10.198C4.47011 9.25461 5.1911 8.48107 6.11829 8.48107C7.04552 8.48107 7.78663 9.25461 7.7708 10.198C7.75494 11.1413 7.04262 11.9082 6.12119 11.9082V11.9082ZM12.2121 11.9082C11.3065 11.9082 10.5625 11.1413 10.5625 10.198C10.5625 9.25461 11.2835 8.48107 12.2121 8.48107C13.1407 8.48107 13.8761 9.25461 13.8603 10.198C13.8444 11.1413 13.1335 11.9082 12.2121 11.9082Z"
      fill="black" />
  </g>
  <defs>
    <clipPath id="clip0_28_475">
      <rect width="18.3333" height="18.3333" fill="white" />
    </clipPath>
  </defs>
</svg>
  