<svg width="18" height="18" viewBox="0 0 18 18" fill="none" xmlns="http://www.w3.org/2000/svg">
  <g clip-path="url(#clip0_28_472)">
    <path
      d="M8.99997 1.71202C11.375 1.71202 11.6562 1.72244 12.5903 1.76411C13.4583 1.8023 13.9271 1.94813 14.2396 2.06966C14.6527 2.22938 14.9514 2.42383 15.2604 2.73286C15.5729 3.04536 15.7639 3.34049 15.9236 3.75369C16.0451 4.06619 16.1909 4.53841 16.2291 5.40299C16.2708 6.34049 16.2812 6.62174 16.2812 8.99327C16.2812 11.3683 16.2708 11.6495 16.2291 12.5836C16.1909 13.4516 16.0451 13.9204 15.9236 14.2329C15.7639 14.646 15.5694 14.9447 15.2604 15.2537C14.9479 15.5662 14.6527 15.7572 14.2396 15.9169C13.9271 16.0384 13.4548 16.1842 12.5903 16.2224C11.6528 16.2641 11.3715 16.2745 8.99997 16.2745C6.62497 16.2745 6.34372 16.2641 5.4097 16.2224C4.54164 16.1842 4.07289 16.0384 3.76039 15.9169C3.34719 15.7572 3.04858 15.5627 2.73956 15.2537C2.42706 14.9412 2.23608 14.646 2.07636 14.2329C1.95483 13.9204 1.809 13.4481 1.77081 12.5836C1.72914 11.6461 1.71872 11.3648 1.71872 8.99327C1.71872 6.61827 1.72914 6.33702 1.77081 5.40299C1.809 4.53494 1.95483 4.06619 2.07636 3.75369C2.23608 3.34049 2.43053 3.04188 2.73956 2.73286C3.05206 2.42036 3.34719 2.22938 3.76039 2.06966C4.07289 1.94813 4.54511 1.8023 5.4097 1.76411C6.34372 1.72244 6.62497 1.71202 8.99997 1.71202ZM8.99997 0.111328C6.58678 0.111328 6.28469 0.121745 5.33678 0.163411C4.39233 0.205078 3.74303 0.357856 3.18053 0.576606C2.59372 0.805772 2.0972 1.10786 1.60414 1.60438C1.10761 2.09744 0.805528 2.59397 0.576362 3.1773C0.357612 3.74327 0.204834 4.38911 0.163167 5.33355C0.121501 6.28494 0.111084 6.58702 0.111084 9.00022C0.111084 11.4134 0.121501 11.7155 0.163167 12.6634C0.204834 13.6079 0.357612 14.2572 0.576362 14.8197C0.805528 15.4065 1.10761 15.903 1.60414 16.396C2.0972 16.8891 2.59372 17.1947 3.17706 17.4204C3.74303 17.6391 4.38886 17.7919 5.33331 17.8335C6.28122 17.8752 6.58331 17.8856 8.9965 17.8856C11.4097 17.8856 11.7118 17.8752 12.6597 17.8335C13.6041 17.7919 14.2534 17.6391 14.8159 17.4204C15.3993 17.1947 15.8958 16.8891 16.3889 16.396C16.8819 15.903 17.1875 15.4065 17.4132 14.8231C17.6319 14.2572 17.7847 13.6113 17.8264 12.6669C17.868 11.719 17.8784 11.4169 17.8784 9.00369C17.8784 6.59049 17.868 6.28841 17.8264 5.34049C17.7847 4.39605 17.6319 3.74674 17.4132 3.18424C17.1944 2.59397 16.8923 2.09744 16.3958 1.60438C15.9028 1.11133 15.4062 0.805772 14.8229 0.580078C14.2569 0.361328 13.6111 0.20855 12.6666 0.166884C11.7152 0.121745 11.4132 0.111328 8.99997 0.111328Z"
      fill="black" />
    <path
      d="M8.99996 4.43433C6.47913 4.43433 4.43399 6.47947 4.43399 9.0003C4.43399 11.5211 6.47913 13.5663 8.99996 13.5663C11.5208 13.5663 13.5659 11.5211 13.5659 9.0003C13.5659 6.47947 11.5208 4.43433 8.99996 4.43433ZM8.99996 11.9621C7.36455 11.9621 6.03816 10.6357 6.03816 9.0003C6.03816 7.36488 7.36455 6.03849 8.99996 6.03849C10.6354 6.03849 11.9618 7.36488 11.9618 9.0003C11.9618 10.6357 10.6354 11.9621 8.99996 11.9621Z"
      fill="black" />
    <path
      d="M14.8125 4.25372C14.8125 4.844 14.3333 5.31969 13.7465 5.31969C13.1562 5.31969 12.6805 4.84052 12.6805 4.25372C12.6805 3.66344 13.1597 3.18774 13.7465 3.18774C14.3333 3.18774 14.8125 3.66691 14.8125 4.25372Z"
      fill="black" />
  </g>
  <defs>
    <clipPath id="clip0_28_472">
      <rect width="17.7778" height="17.7778" fill="white" transform="translate(0.111084 0.111328)" />
    </clipPath>
  </defs>
</svg>
  