<svg width="178" height="179" viewBox="0 0 178 179" fill="none" xmlns="http://www.w3.org/2000/svg">
  <path
    d="M50.3904 19.5428L52.0455 22.1242L50.9977 22.7974L49.9146 21.1094L43.6256 25.1434L44.7088 26.8315L43.661 27.5046L42.0059 24.9232L42.8486 24.3817C42.3551 21.8129 41.1935 19.3277 38.7665 15.5442L44.3393 11.9707L49.5451 20.0869L50.3878 19.5453L50.3904 19.5428ZM48.4999 20.755L43.8685 13.5322L40.3786 15.7694C42.4184 19.062 43.4484 21.3422 43.8989 23.7034L48.4999 20.7525V20.755Z"
    fill="white" />
  <path
    d="M51.0915 9.70058L54.8497 17.4144L56.9933 16.3692L57.459 17.3258L52.0406 19.9654L51.5749 19.0088L53.7311 17.9585L49.9729 10.2447L47.8167 11.295L47.351 10.3383L52.7694 7.69873L53.2351 8.65537L51.0915 9.69805V9.70058Z"
    fill="white" />
  <path
    d="M58.747 12.368C59.5214 14.5596 60.7641 15.0227 62.7836 14.3091C64.6159 13.6612 65.1271 12.6438 64.6463 11.2822C64.1755 9.95105 63.2645 9.69291 62.0472 10.1231L60.6451 10.6192L60.2908 9.61699L61.6929 9.12096C62.9102 8.69072 63.3201 7.98211 62.9355 6.89387C62.5508 5.80563 61.6574 5.28429 59.8251 5.93217C57.8056 6.64585 57.2741 7.73662 57.8537 9.38163L56.6794 9.79668C55.8847 7.54934 56.8768 5.84612 59.4708 4.92998C61.8903 4.07458 63.5074 4.7756 64.0541 6.32191C64.4894 7.5544 64.0591 8.43005 62.8393 9.08553L62.9557 9.41453C64.335 9.21713 65.3346 9.49298 65.8813 11.0393C66.5191 12.8437 65.5574 14.4558 63.1379 15.3113C60.5464 16.2274 58.5597 15.5745 57.5727 12.783L58.747 12.368Z"
    fill="white" />
  <path
    d="M74.939 1.073L77.1332 11.553L75.9285 11.806L74.9542 7.15447L68.7715 8.45023L69.7458 13.1018L68.526 13.3574L66.3318 2.87744L67.5516 2.62184L68.5538 7.40755L74.7365 6.11178L73.7343 1.32608L74.939 1.073Z"
    fill="white" />
  <path
    d="M84.8116 6.6712L80.527 6.99514L79.5096 11.2747L78.267 11.3683L80.9142 0.43282L83.4577 0.240479L87.7018 10.6547L86.4744 10.7483L84.8116 6.6712ZM84.3991 5.63611L82.3796 0.673244L82.0303 0.69855L80.7953 5.90943L84.3991 5.63611Z"
    fill="white" />
  <path
    d="M95.5573 1.28311L91.8522 1.18947L91.6068 10.8292L90.3768 10.7988L90.6223 1.1591L86.8868 1.06293L86.9147 0L95.5826 0.220177L95.5548 1.28311H95.5573Z"
    fill="white" />
  <path
    d="M104.372 12.2312L105.82 2.8825L106.151 2.0271L105.807 1.97395L98.9536 11.3935L96.4785 11.0088L98.1185 0.430176L99.3332 0.617455L97.8856 9.96617L97.5541 10.8216L97.8983 10.8747L104.767 1.45767L107.242 1.84235L105.602 12.421L104.372 12.2312Z"
    fill="white" />
  <path
    d="M114.898 3.76579C117.512 4.55792 118.752 6.64581 118.294 9.2677L117.102 8.9058C117.464 6.87359 116.596 5.39055 114.591 4.78316C112.207 4.06188 110.451 5.46647 109.704 7.93651C108.953 10.4217 109.636 12.5628 112.02 13.2841C114.024 13.8914 115.573 13.1221 116.401 11.2316L117.593 11.5935C116.517 14.0433 114.328 15.0936 111.711 14.304C108.702 13.3929 107.606 10.5711 108.512 7.57714C109.413 4.59841 111.891 2.85723 114.9 3.76832L114.898 3.76579Z"
    fill="white" />
  <path
    d="M121.591 10.5331L123.421 11.3531C125.749 12.3958 126.939 13.7143 125.853 16.1388C124.773 18.5507 123.004 18.5228 120.675 17.4776L117.709 16.1489L122.09 6.38013L123.226 6.88881L121.591 10.5331ZM121.108 16.5083C122.826 17.2777 123.92 17.4017 124.714 15.6301C125.517 13.8434 124.702 13.0943 122.986 12.3249L121.156 11.505L119.281 15.6883L121.111 16.5083H121.108Z"
    fill="white" />
  <path
    d="M138.155 23.8272C136.662 26.0062 134.926 25.6646 132.82 24.222L130.14 22.3847L136.191 13.5522L141.39 17.1156L140.79 17.9938L136.619 15.134L134.962 17.5509L136.614 18.6847C138.72 20.1272 139.656 21.633 138.153 23.8272H138.155ZM137.128 23.1237C138.236 21.5065 137.568 20.6283 136.014 19.5629L134.362 18.4291L131.77 22.2126L133.423 23.3464C134.977 24.4118 136.03 24.7282 137.128 23.1237Z"
    fill="white" />
  <path
    d="M145.986 22.1443L140.463 28.7116L142.288 30.2453L141.605 31.0577L136.991 27.178L137.675 26.3656L139.512 27.9094L145.034 21.342L143.197 19.7982L143.88 18.9858L148.494 22.8655L147.81 23.6779L145.986 22.1443Z"
    fill="white" />
  <path
    d="M148.623 38.235L147.767 37.3315L154.768 30.7009L151.989 27.7677C148.231 31.3057 144.832 34.2338 142.524 31.7967L143.296 31.0653C144.935 32.7964 148.243 29.6 151.905 26.1328L156.395 30.873L148.623 38.235Z"
    fill="white" />
  <path
    d="M155.843 36.5825L157.038 38.1921C158.559 40.2395 158.953 41.9706 156.82 43.5548C154.699 45.129 153.17 44.2407 151.649 42.1933L149.713 39.584L158.308 33.2014L159.05 34.2011L155.843 36.5825ZM152.502 41.5581C153.626 43.0689 154.517 43.7118 156.078 42.5527C157.65 41.386 157.306 40.3357 156.185 38.8248L154.99 37.2152L151.308 39.9485L152.502 41.5581Z"
    fill="white" />
  <path
    d="M170.246 52.3416L160.816 57.4082L155.066 46.7055L164.496 41.6389L165.086 42.7347L156.592 47.2977L158.584 51.0028L167.077 46.4398L167.667 47.5356L159.174 52.0986L161.165 55.8037L169.659 51.2407L170.248 52.3365L170.246 52.3416Z"
    fill="white" />
  <path
    d="M171.367 55.3279L173.66 61.5561L172.663 61.9231L170.8 56.8641L167.28 58.1598L168.879 62.5052L167.882 62.8721L166.283 58.5268L162.75 59.8276L164.612 64.8866L163.615 65.2536L161.322 59.0279L171.369 55.3279H171.367Z"
    fill="white" />
  <path
    d="M169.013 70.9936C169.697 70.8519 170.345 71.2745 170.489 71.973C170.631 72.6563 170.21 73.3194 169.527 73.4611C168.829 73.6054 168.178 73.1675 168.036 72.4842C167.89 71.7857 168.315 71.1379 169.013 70.9936Z"
    fill="white" />
  <path
    d="M168.416 90.4603L165.351 90.5944L165.295 89.3518L167.297 89.2633L166.968 81.8L164.966 81.8885L164.911 80.6434L167.976 80.5093L168.019 81.5115C170.489 82.3745 173.219 82.6199 177.709 82.4225L178 89.0355L168.368 89.4607L168.411 90.4628L168.416 90.4603ZM168.317 88.2155L176.886 87.8384L176.704 83.6981C172.835 83.8069 170.344 83.5538 168.077 82.7566L168.317 88.218V88.2155Z"
    fill="white" />
  <path
    d="M176.585 95.9975L168.029 95.3876L167.859 97.7666L166.799 97.6906L167.229 91.6775L168.289 91.7534L168.12 94.1475L176.676 94.7574L176.846 92.3633L177.906 92.4393L177.476 98.4524L176.416 98.3765L176.585 95.9975Z"
    fill="white" />
  <path
    d="M170.448 101.279C168.163 100.854 167.143 101.699 166.751 103.805C166.396 105.716 167.022 106.667 168.439 106.931C169.828 107.189 170.506 106.528 170.742 105.258L171.015 103.795L172.06 103.99L171.787 105.453C171.552 106.72 171.959 107.432 173.095 107.642C174.232 107.852 175.128 107.34 175.484 105.43C175.877 103.324 175.199 102.319 173.48 101.998L173.708 100.773C176.051 101.208 177.031 102.919 176.53 105.622C176.061 108.145 174.644 109.196 173.032 108.894C171.749 108.656 171.205 107.844 171.245 106.462L170.901 106.399C170.382 107.692 169.646 108.421 168.034 108.12C166.153 107.771 165.237 106.133 165.706 103.61C166.209 100.907 167.766 99.5128 170.676 100.054L170.448 101.279Z"
    fill="white" />
  <path
    d="M172.131 120.956L161.96 117.618L162.345 116.449L166.86 117.932L168.829 111.932L164.314 110.448L164.701 109.267L174.872 112.605L174.485 113.787L169.838 112.263L167.869 118.264L172.516 119.787L172.131 120.956Z"
    fill="white" />
  <path
    d="M162.342 126.706L164.207 122.834L161.014 119.812L161.555 118.691L169.694 126.458L168.586 128.756L157.445 127.215L157.979 126.106L162.34 126.709L162.342 126.706ZM163.446 126.866L168.753 127.605L168.905 127.291L165.015 123.611L163.446 126.866Z"
    fill="white" />
  <path
    d="M161.611 138.705L163.552 135.549L155.34 130.497L155.985 129.449L164.197 134.501L166.154 131.32L167.06 131.876L162.517 139.261L161.611 138.705Z"
    fill="white" />
  <path
    d="M147.719 140.828L155.076 146.775L155.648 147.492L155.868 147.221L151.166 136.566L152.74 134.617L161.067 141.347L160.292 142.303L152.935 136.356L152.363 135.64L152.143 135.911L156.838 146.578L155.264 148.527L146.937 141.797L147.719 140.828Z"
    fill="white" />
  <path
    d="M149.757 154.183C147.76 156.05 145.33 156.076 143.293 154.365L144.202 153.515C145.778 154.846 147.499 154.838 149.03 153.408C150.85 151.708 150.516 149.483 148.752 147.598C146.978 145.702 144.781 145.219 142.961 146.919C141.43 148.352 141.319 150.078 142.541 151.741L141.633 152.591C140.051 150.432 140.238 148.01 142.235 146.142C144.531 143.996 147.524 144.462 149.66 146.745C151.786 149.017 152.052 152.037 149.757 154.183Z"
    fill="white" />
  <path
    d="M140.56 156.579L138.935 157.754C136.867 159.247 135.134 159.621 133.577 157.468C132.028 155.327 132.937 153.808 135.005 152.315L137.639 150.412L143.908 159.087L142.898 159.816L140.56 156.579ZM135.627 153.175C134.101 154.279 133.448 155.162 134.587 156.739C135.733 158.326 136.789 157.997 138.315 156.893L139.94 155.719L137.254 152.001L135.63 153.175H135.627Z"
    fill="white" />
  <path
    d="M120.761 164.291C119.62 161.907 120.784 160.576 123.085 159.475L126.015 158.07L130.642 167.725L124.957 170.448L124.499 169.489L129.06 167.305L127.794 164.663L125.987 165.528C123.687 166.629 121.913 166.69 120.766 164.293L120.761 164.291ZM121.885 163.752C122.73 165.518 123.826 165.382 125.524 164.567L127.331 163.701L125.35 159.566L123.543 160.431C121.845 161.244 121.045 161.998 121.885 163.752Z"
    fill="white" />
  <path
    d="M118.301 171.911L115.381 163.845L113.139 164.658L112.777 163.658L118.446 161.606L118.808 162.605L116.553 163.423L119.473 171.488L121.728 170.671L122.09 171.671L116.421 173.723L116.059 172.723L118.301 171.911Z"
    fill="white" />
  <path
    d="M103.053 166.128L104.266 165.842L106.488 175.224L110.418 174.292C109.244 169.266 108.419 164.858 111.683 164.086L111.929 165.121C109.608 165.67 110.714 170.137 111.876 175.041L105.524 176.545L103.056 166.128H103.053Z"
    fill="white" />
  <path
    d="M100.854 173.202L98.8626 173.424C96.3267 173.71 94.6336 173.181 94.335 170.539C94.0389 167.912 95.5776 167.037 98.1109 166.753L101.34 166.391L102.535 177.031L101.297 177.17L100.852 173.202H100.854ZM98.2324 167.811C96.3622 168.021 95.3574 168.469 95.5751 170.403C95.7927 172.349 96.8734 172.579 98.7462 172.369L100.738 172.146L100.227 167.588L98.2349 167.811H98.2324Z"
    fill="white" />
  <path
    d="M80.0056 177.747L80.3498 167.047L92.4899 167.437L92.1457 178.137L90.9006 178.096L91.2094 168.459L87.0057 168.325L86.697 177.962L85.4518 177.922L85.7606 168.284L81.5569 168.15L81.2482 177.788L80.0031 177.747H80.0056Z"
    fill="white" />
  <path
    d="M76.8649 177.228L70.3254 176.1L70.5051 175.052L75.8172 175.968L76.4549 172.273L71.8919 171.486L72.0716 170.438L76.6346 171.225L77.2749 167.515L71.9628 166.599L72.1425 165.551L78.682 166.68L76.8599 177.228H76.8649Z"
    fill="white" />
  <path
    d="M64.4794 167.356C64.2617 168.019 63.5708 168.368 62.8926 168.143C62.2295 167.925 61.8676 167.229 62.0853 166.566C62.308 165.888 63.0141 165.544 63.6771 165.764C64.3554 165.986 64.7021 166.677 64.4794 167.356Z"
    fill="white" />
  <path
    d="M47.923 157.098L49.3402 154.378L50.4436 154.955L49.5174 156.731L56.1404 160.186L57.0667 158.409L58.1701 158.986L56.7529 161.704L55.8646 161.241C53.8805 162.947 52.3012 165.187 50.2209 169.17L44.3521 166.11L48.8113 157.561L47.923 157.098ZM49.9147 158.138L45.949 165.743L49.6237 167.659C51.4686 164.255 52.9339 162.228 54.7612 160.664L49.9147 158.136V158.138Z"
    fill="white" />
  <path
    d="M39.0373 161.378L43.8661 154.287L41.8946 152.945L42.4919 152.067L47.475 155.461L46.8777 156.339L44.8961 154.99L40.0674 162.081L42.0515 163.433L41.4542 164.311L36.4711 160.917L37.0684 160.039L39.0399 161.38L39.0373 161.378Z"
    fill="white" />
  <path
    d="M37.5518 153.411C39.0677 151.65 38.8501 150.341 37.2278 148.947C35.7549 147.679 34.6186 147.742 33.6771 148.838C32.7559 149.908 32.9862 150.827 33.9657 151.67L35.0944 152.639L34.401 153.444L33.2722 152.475C32.2928 151.632 31.4754 151.629 30.7237 152.505C29.9721 153.381 29.962 154.413 31.4374 155.681C33.0596 157.078 34.2719 156.997 35.4107 155.674L36.3547 156.486C34.8008 158.293 32.8293 158.28 30.744 156.486C28.7978 154.813 28.6029 153.062 29.6709 151.819C30.5213 150.83 31.4981 150.766 32.6724 151.498L32.9002 151.232C32.0423 150.134 31.7841 149.131 32.8521 147.886C34.0998 146.436 35.9751 146.467 37.9213 148.139C40.0041 149.931 40.4267 151.979 38.4983 154.223L37.5543 153.411H37.5518Z"
    fill="white" />
  <path
    d="M19.692 145.011L27.6741 137.88L28.4941 138.796L24.951 141.962L29.1597 146.672L32.7028 143.506L33.5329 144.434L25.5508 151.566L24.7207 150.637L28.3675 147.38L24.1588 142.67L20.512 145.928L19.692 145.011Z"
    fill="white" />
  <path
    d="M19.611 133.671L22.0329 137.222L26.2467 135.964L26.9477 136.991L16.1539 140.165L14.7164 138.057L21.6153 129.176L22.3088 130.191L19.6084 133.668L19.611 133.671ZM18.9226 134.547L15.6326 138.776L15.83 139.064L20.9599 137.53L18.9226 134.544V134.547Z"
    fill="white" />
  <path
    d="M9.58147 127.043L11.3454 130.3L19.8235 125.707L20.4082 126.787L11.93 131.381L13.7092 134.666L12.7753 135.172L8.64508 127.549L9.57894 127.043H9.58147Z"
    fill="white" />
  <path
    d="M14.6887 113.938L5.85628 117.329L4.95026 117.466L5.07427 117.793L16.6526 119.055L17.551 121.394L7.55697 125.233L7.11661 124.084L15.949 120.693L16.8551 120.556L16.7311 120.23L5.14513 118.954L4.2467 116.616L14.2408 112.777L14.6862 113.938H14.6887Z"
    fill="white" />
  <path
    d="M2.11333 109.016C1.50088 106.351 2.69541 104.238 5.20088 103.334L5.47927 104.547C3.53562 105.243 2.68022 106.733 3.14842 108.776C3.70772 111.203 5.79815 112.03 8.31374 111.451C10.8445 110.869 12.363 109.208 11.8037 106.784C11.333 104.741 9.89801 103.78 7.84555 104.003L7.56716 102.79C10.227 102.504 12.2289 103.884 12.8413 106.546C13.5474 109.608 11.6417 111.964 8.59466 112.665C5.56025 113.364 2.81942 112.078 2.11333 109.016Z"
    fill="white" />
  <path
    d="M4.65656 99.842L4.45916 97.8477C4.20608 95.3093 4.75526 93.6213 7.39993 93.3581C10.0294 93.0974 10.8848 94.6437 11.1379 97.1821L11.4593 100.416L0.807237 101.474L0.683228 100.234L4.65656 99.8394V99.842ZM10.08 97.2884C9.89275 95.4156 9.45745 94.4058 7.52393 94.5982C5.57523 94.7931 5.32975 95.8686 5.51702 97.7439L5.71443 99.7382L10.2774 99.2852L10.08 97.2909V97.2884Z"
    fill="white" />
  <path
    d="M7.91629 78.8642C10.5508 79.0692 11.1203 80.742 10.9229 83.2854L10.6723 86.5248L0 85.6973L0.488439 79.4159L1.54884 79.4969L1.1591 84.5382L4.07962 84.7659L4.234 82.7666C4.4314 80.2232 5.26909 78.6592 7.91629 78.8642ZM7.82012 80.1042C5.86635 79.9524 5.43865 80.9698 5.29187 82.8476L5.13749 84.8469L9.70808 85.2012L9.86246 83.2019C10.0092 81.3241 9.75617 80.2536 7.81759 80.1042H7.82012Z"
    fill="white" />
  <path
    d="M2.54857 72.9193L10.9938 74.4226L11.4114 72.0765L12.4566 72.2638L11.4012 78.1985L10.356 78.0112L10.7761 75.65L2.33093 74.1467L1.91082 76.5079L0.865601 76.3207L1.92094 70.386L2.96615 70.5733L2.54857 72.9193Z"
    fill="white" />
  <path
    d="M15.1796 62.6014L14.8228 63.7934L5.58544 61.0273L4.42634 64.8968C9.36896 66.3925 13.5979 67.8806 12.6362 71.0947L11.6188 70.791C12.3021 68.5083 7.88086 67.2302 3.05212 65.7851L4.92491 59.5291L15.1796 62.5989V62.6014Z"
    fill="white" />
  <path
    d="M10.1536 57.1628L10.9558 55.3254C11.9783 52.987 13.2816 51.7849 15.7162 52.8503C18.1382 53.9082 18.1255 55.6772 17.1056 58.0157L15.8048 60.9944L5.99548 56.7073L6.49405 55.5659L10.1536 57.1653V57.1628ZM16.1313 57.588C16.8854 55.862 16.9993 54.7687 15.2177 53.9892C13.4233 53.2047 12.6843 54.0246 11.9276 55.7506L11.1254 57.588L15.3265 59.4253L16.1287 57.588H16.1313Z"
    fill="white" />
  <path
    d="M16.6754 36.8354L25.7584 42.5044L19.3251 52.8097L10.2421 47.1408L10.9001 46.0855L19.0796 51.19L21.3067 47.6216L13.1272 42.5171L13.7878 41.4617L21.9672 46.5663L24.1943 42.9979L16.0148 37.8933L16.6754 36.838V36.8354Z"
    fill="white" />
  <path
    d="M18.7051 34.3806L22.967 29.2937L23.7819 29.977L20.3198 34.1098L23.1948 36.5191L26.1684 32.9684L26.9833 33.6517L24.0097 37.2024L26.8973 39.6218L30.3594 35.4891L31.1743 36.1724L26.9125 41.2592L18.7051 34.3856V34.3806Z"
    fill="white" />
  <path
    d="M33.4645 28.6205C32.9989 28.0992 33.0444 27.3273 33.5784 26.8515C34.0998 26.3858 34.8843 26.4213 35.3474 26.9426C35.8232 27.4766 35.7675 28.2586 35.2437 28.7217C34.7097 29.1975 33.9378 29.152 33.4645 28.618V28.6205Z"
    fill="white" />
</svg>
