<svg width="20" height="20" viewBox="0 0 20 20" fill="none" xmlns="http://www.w3.org/2000/svg">
  <g clip-path="url(#clip0_28_469)">
    <path fill-rule="evenodd" clip-rule="evenodd"
      d="M20 10.0002C20 15.5231 15.5228 20.0002 10 20.0002C4.47715 20.0002 0 15.5231 0 10.0002C0 4.4774 4.47715 0.000244141 10 0.000244141C15.5228 0.000244141 20 4.4774 20 10.0002ZM10.3584 7.38268C9.38571 7.78724 7.44178 8.62457 4.52658 9.89468C4.05319 10.0829 3.80521 10.2671 3.78264 10.4472C3.74449 10.7515 4.12559 10.8713 4.64456 11.0345C4.71515 11.0567 4.7883 11.0797 4.86328 11.1041C5.37386 11.2701 6.06069 11.4642 6.41774 11.4719C6.74162 11.4789 7.10311 11.3454 7.5022 11.0714C10.226 9.23275 11.632 8.30342 11.7203 8.28338C11.7825 8.26925 11.8688 8.25148 11.9273 8.30345C11.9858 8.35542 11.98 8.45384 11.9738 8.48025C11.9361 8.64119 10.4401 10.032 9.66594 10.7517C9.42459 10.9761 9.2534 11.1353 9.2184 11.1716C9.14 11.253 9.06011 11.3301 8.98332 11.4041C8.50897 11.8614 8.15326 12.2043 9.00301 12.7642C9.41137 13.0333 9.73814 13.2559 10.0641 13.4779C10.4201 13.7203 10.7752 13.9621 11.2347 14.2633C11.3517 14.34 11.4635 14.4197 11.5724 14.4974C11.9867 14.7927 12.359 15.0581 12.8188 15.0158C13.086 14.9912 13.3621 14.7399 13.5022 13.9905C13.8335 12.2195 14.4847 8.38229 14.6352 6.80106C14.6484 6.66252 14.6318 6.48522 14.6185 6.40739C14.6051 6.32956 14.5773 6.21867 14.4761 6.13658C14.3563 6.03936 14.1714 6.01886 14.0886 6.02031C13.7125 6.02694 13.1355 6.22759 10.3584 7.38268Z"
      fill="black" />
  </g>
  <defs>
    <clipPath id="clip0_28_469">
      <rect width="20" height="20" fill="white" transform="translate(0 0.000244141)" />
    </clipPath>
  </defs>
</svg>
  